<?xml version="1.0" standalone="no"?>
<!DOCTYPE svg PUBLIC "-//W3C//DTD SVG 20010904//EN"
 "http://www.w3.org/TR/2001/REC-SVG-20010904/DTD/svg10.dtd">
<svg version="1.0" xmlns="http://www.w3.org/2000/svg"
 width="300.000000pt" height="300.000000pt" viewBox="0 0 300.000000 300.000000"
 preserveAspectRatio="xMidYMid meet">
<metadata>
Created by potrace 1.11, written by Peter Selinger 2001-2013
</metadata>
<g transform="translate(0.000000,300.000000) scale(0.100000,-0.100000)"
fill="#000000" stroke="none">
<path d="M0 1500 l0 -1500 1500 0 1500 0 0 1500 0 1500 -1500 0 -1500 0 0
-1500z m2445 901 c90 -83 282 -245 334 -281 29 -20 33 -27 28 -56 -9 -52 -64
-154 -110 -203 -53 -55 -149 -119 -193 -127 -47 -9 -78 14 -109 80 -29 61
-144 184 -197 209 -42 20 -46 17 -184 -138 -133 -149 -335 -358 -394 -408
l-45 -37 70 -66 c39 -36 122 -109 186 -162 247 -206 346 -291 396 -343 95
-100 173 -188 173 -197 0 -5 14 -27 31 -48 40 -49 83 -140 75 -159 -7 -18 -50
-19 -132 -4 -66 12 -90 28 -99 68 -6 27 -57 106 -131 202 -79 103 -627 609
-659 609 -5 0 -44 -30 -85 -66 -326 -285 -489 -439 -564 -534 -76 -94 -131
-180 -145 -222 -14 -43 -41 -55 -153 -65 -56 -5 -69 -3 -74 10 -7 20 27 98 64
145 16 20 36 51 45 67 29 55 270 290 454 443 100 82 224 188 276 234 l93 83
-134 129 c-73 72 -201 205 -284 298 -83 92 -155 169 -162 169 -57 6 -186 -113
-242 -223 -46 -91 -95 -98 -200 -29 -80 51 -139 118 -180 204 -42 87 -43 111
-6 134 43 27 238 191 351 296 63 58 113 97 125 97 14 0 66 -45 145 -124 111
-112 123 -127 118 -152 -3 -18 2 -43 15 -69 18 -35 118 -178 188 -268 58 -75
343 -367 357 -367 15 0 307 306 373 390 58 74 135 182 163 231 21 35 26 53 21
78 -7 31 -1 38 102 143 60 61 122 119 139 129 34 21 17 32 160 -100z"/>
</g>
</svg>
